<?xml version="1.0" encoding="utf-8" standalone="yes"?>
<!DOCTYPE svg PUBLIC "-//W3C//DTD SVG 1.1//EN" "http://www.w3.org/Graphics/SVG/1.1/DTD/svg11.dtd">
<svg width="782" height="190" viewBox="0 0 782 190" style="fill:none;stroke:none;fill-rule:evenodd;clip-rule:evenodd;stroke-linecap:round;stroke-linejoin:round;stroke-miterlimit:1.5;" version="1.1" xmlns="http://www.w3.org/2000/svg" xmlns:xlink="http://www.w3.org/1999/xlink"><style id="fontImports">@import url("https://fonts.googleapis.com/css2?family=Roboto:wght@400;700&amp;display=block");</style><g id="items" style="isolation: isolate"><g id="blend" style="mix-blend-mode:multiply"><g id="g-root-ro_1cy00rx47nzm0-fill" data-item-order="999988768" data-item-id="ro_1cy00rx47nzm0" data-item-class="Shape Stroke Fill" data-item-index="none" data-renderer-id="0" transform="translate(427, 3)"><g id="ro_1cy00rx47nzm0-fill" stroke="none" fill="#e6efff"><g><path d="M 22 10L 154 10C 154 10 166 10 166 22L 166 70C 166 70 166 82 154 82L 22 82C 22 82 10 82 10 70L 10 22C 10 22 10 10 22 10"></path></g></g></g><g id="g-root-ro_4m1nx475qmb-fill" data-item-order="999988768" data-item-id="ro_4m1nx475qmb" data-item-class="Shape Stroke Fill" data-item-index="none" data-renderer-id="0" transform="translate(427, 95)"><g id="ro_4m1nx475qmb-fill" stroke="none" fill="#ffe7e6"><g><path d="M 22 10L 154 10C 154 10 166 10 166 22L 166 70C 166 70 166 82 154 82L 22 82C 22 82 10 82 10 70L 10 22C 10 22 10 10 22 10"></path></g></g></g><g id="g-root-ro_qp12wd47ic5m-fill" data-item-order="999988768" data-item-id="ro_qp12wd47ic5m" data-item-class="Shape Stroke Fill" data-item-index="none" data-renderer-id="0" transform="translate(3, 49)"><g id="ro_qp12wd47ic5m-fill" stroke="none" fill="#f0f0f0"><g><path d="M 22 10L 154 10C 154 10 166 10 166 22L 166 70C 166 70 166 82 154 82L 22 82C 22 82 10 82 10 70L 10 22C 10 22 10 10 22 10"></path></g></g></g><g id="g-root-ro_v483xp47l6v5-fill" data-item-order="999988768" data-item-id="ro_v483xp47l6v5" data-item-class="Shape Stroke Fill" data-item-index="none" data-renderer-id="0" transform="translate(215, 49)"><g id="ro_v483xp47l6v5-fill" stroke="none" fill="#e9fbf3"><g><path d="M 22 10L 154 10C 154 10 166 10 166 22L 166 70C 166 70 166 82 154 82L 22 82C 22 82 10 82 10 70L 10 22C 10 22 10 10 22 10"></path></g></g></g><g id="g-root-ro_140hofh478hlb-fill" data-item-order="999993520" data-item-id="ro_140hofh478hlb" data-item-class="Shape Stroke Fill" data-item-index="none" data-renderer-id="0" transform="translate(639, 104)"><g id="ro_140hofh478hlb-fill" stroke="none" fill="#fee7f5"><g><path d="M 22 10L 118 10C 118 10 130 10 130 22L 130 52C 130 52 130 64 118 64L 22 64C 22 64 10 64 10 52L 10 22C 10 22 10 10 22 10"></path></g></g></g><g id="g-root-2_13zv46l47idqh-fill" data-item-order="1000000000" data-item-id="2_13zv46l47idqh" data-item-class="Icon Stroke" data-item-index="none" data-renderer-id="0" transform="translate(15, 70)"></g><g id="g-root-tx_visualat_1q6ymst47ibcw-fill" data-item-order="1000000000" data-item-id="tx_visualat_1q6ymst47ibcw" data-item-class="Label Stroke" data-item-index="none" data-renderer-id="0" transform="translate(51, 61)"><g id="tx_visualat_1q6ymst47ibcw-fill" stroke="none" fill="#484848"><g><text style="font: 20px Roboto, sans-serif; white-space: pre;"><tspan x="12" y="33.5" dominant-baseline="ideographic">Visual </tspan><tspan x="12" y="57.5" dominant-baseline="ideographic">Attention</tspan></text></g></g></g><g id="g-root-focu_18fomb147l5a8-fill" data-item-order="1000000000" data-item-id="focu_18fomb147l5a8" data-item-class="Icon Stroke" data-item-index="none" data-renderer-id="0" transform="translate(227, 70)"></g><g id="g-root-tx_spatiala_1hap5gt47l6vj-fill" data-item-order="1000000000" data-item-id="tx_spatiala_1hap5gt47l6vj" data-item-class="Label Stroke" data-item-index="none" data-renderer-id="0" transform="translate(263, 61)"><g id="tx_spatiala_1hap5gt47l6vj-fill" stroke="none" fill="#3bc482"><g><text style="font: 20px Roboto, sans-serif; white-space: pre;"><tspan x="12" y="33.5" dominant-baseline="ideographic">Spatial </tspan><tspan x="12" y="57.5" dominant-baseline="ideographic">Attention</tspan></text></g></g></g><g id="g-root-down_1hdtiwd47nytr-fill" data-item-order="1000000000" data-item-id="down_1hdtiwd47nytr" data-item-class="Icon Stroke" data-item-index="none" data-renderer-id="0" transform="translate(439, 24)"></g><g id="g-root-tx_n2pc_1q6ypyl478idh-fill" data-item-order="1000000000" data-item-id="tx_n2pc_1q6ypyl478idh" data-item-class="Label Stroke" data-item-index="none" data-renderer-id="0" transform="translate(687, 119)"><g id="tx_n2pc_1q6ypyl478idh-fill" stroke="none" fill="#da5da8"><g><text style="font: 20px Roboto, sans-serif; white-space: pre;"><tspan x="12" y="33.5" dominant-baseline="ideographic">N2pc</tspan></text></g></g></g><g id="g-root-tx_covertat_dg2k19475p1d-fill" data-item-order="1000000000" data-item-id="tx_covertat_dg2k19475p1d" data-item-class="Label Stroke" data-item-index="none" data-renderer-id="0" transform="translate(475, 107)"><g id="tx_covertat_dg2k19475p1d-fill" stroke="none" fill="#e15e5a"><g><text style="font: 20px Roboto, sans-serif; white-space: pre;"><tspan x="12" y="33.5" dominant-baseline="ideographic">Covert </tspan><tspan x="12" y="57.5" dominant-baseline="ideographic">Attention</tspan></text></g></g></g><g id="g-root-tx_overtatt_1q9gj5947ny12-fill" data-item-order="1000000000" data-item-id="tx_overtatt_1q9gj5947ny12" data-item-class="Label Stroke" data-item-index="none" data-renderer-id="0" transform="translate(475, 15)"><g id="tx_overtatt_1q9gj5947ny12-fill" stroke="none" fill="#17b0e3"><g><text style="font: 20px Roboto, sans-serif; white-space: pre;"><tspan x="12" y="33.5" dominant-baseline="ideographic">Overt </tspan><tspan x="12" y="57.5" dominant-baseline="ideographic">Attention</tspan></text></g></g></g><g id="g-root-neur_1hbbppp478j66-fill" data-item-order="1000000000" data-item-id="neur_1hbbppp478j66" data-item-class="Icon Stroke" data-item-index="none" data-renderer-id="0" transform="translate(651, 116)"></g><g id="g-root-deni_4kfjsd475pu2-fill" data-item-order="1000000000" data-item-id="deni_4kfjsd475pu2" data-item-class="Icon Stroke" data-item-index="none" data-renderer-id="0" transform="translate(439, 116)"></g><g id="g-root-cu_1cxdmul478iyw-fill" data-item-order="1000000002" data-item-id="cu_1cxdmul478iyw" data-item-class="Curve Stroke" data-item-index="none" data-renderer-id="0" transform="translate(159, 85)"></g><g id="g-root-cu_1q8u57x478hdv-fill" data-item-order="1000000002" data-item-id="cu_1q8u57x478hdv" data-item-class="Curve Stroke" data-item-index="none" data-renderer-id="0" transform="translate(371, 85)"></g><g id="g-root-cu_1hd74z1478i6m-fill" data-item-order="1000000002" data-item-id="cu_1hd74z1478i6m" data-item-class="Curve Stroke" data-item-index="none" data-renderer-id="0" transform="translate(371, 39)"></g><g id="g-root-cu_1uo1699478jrc-fill" data-item-order="1000000002" data-item-id="cu_1uo1699478jrc" data-item-class="Curve Stroke" data-item-index="none" data-renderer-id="0" transform="translate(583, 131)"></g><g id="g-root-ro_1cy00rx47nzm0-stroke" data-item-order="999988768" data-item-id="ro_1cy00rx47nzm0" data-item-class="Shape Stroke Fill" data-item-index="none" data-renderer-id="0" transform="translate(427, 3)"><g id="ro_1cy00rx47nzm0-stroke" fill="none" stroke-linecap="round" stroke-linejoin="round" stroke-miterlimit="4" stroke="#4682e3" stroke-width="2"><g><path d="M 22 10L 154 10C 154 10 166 10 166 22L 166 70C 166 70 166 82 154 82L 22 82C 22 82 10 82 10 70L 10 22C 10 22 10 10 22 10"></path></g></g></g><g id="g-root-ro_4m1nx475qmb-stroke" data-item-order="999988768" data-item-id="ro_4m1nx475qmb" data-item-class="Shape Stroke Fill" data-item-index="none" data-renderer-id="0" transform="translate(427, 95)"><g id="ro_4m1nx475qmb-stroke" fill="none" stroke-linecap="round" stroke-linejoin="round" stroke-miterlimit="4" stroke="#e15e5a" stroke-width="2"><g><path d="M 22 10L 154 10C 154 10 166 10 166 22L 166 70C 166 70 166 82 154 82L 22 82C 22 82 10 82 10 70L 10 22C 10 22 10 10 22 10"></path></g></g></g><g id="g-root-ro_qp12wd47ic5m-stroke" data-item-order="999988768" data-item-id="ro_qp12wd47ic5m" data-item-class="Shape Stroke Fill" data-item-index="none" data-renderer-id="0" transform="translate(3, 49)"><g id="ro_qp12wd47ic5m-stroke" fill="none" stroke-linecap="round" stroke-linejoin="round" stroke-miterlimit="4" stroke="#484848" stroke-width="2"><g><path d="M 22 10L 154 10C 154 10 166 10 166 22L 166 70C 166 70 166 82 154 82L 22 82C 22 82 10 82 10 70L 10 22C 10 22 10 10 22 10"></path></g></g></g><g id="g-root-ro_v483xp47l6v5-stroke" data-item-order="999988768" data-item-id="ro_v483xp47l6v5" data-item-class="Shape Stroke Fill" data-item-index="none" data-renderer-id="0" transform="translate(215, 49)"><g id="ro_v483xp47l6v5-stroke" fill="none" stroke-linecap="round" stroke-linejoin="round" stroke-miterlimit="4" stroke="#3bc482" stroke-width="2"><g><path d="M 22 10L 154 10C 154 10 166 10 166 22L 166 70C 166 70 166 82 154 82L 22 82C 22 82 10 82 10 70L 10 22C 10 22 10 10 22 10"></path></g></g></g><g id="g-root-ro_140hofh478hlb-stroke" data-item-order="999993520" data-item-id="ro_140hofh478hlb" data-item-class="Shape Stroke Fill" data-item-index="none" data-renderer-id="0" transform="translate(639, 104)"><g id="ro_140hofh478hlb-stroke" fill="none" stroke-linecap="round" stroke-linejoin="round" stroke-miterlimit="4" stroke="#da5da8" stroke-width="2"><g><path d="M 22 10L 118 10C 118 10 130 10 130 22L 130 52C 130 52 130 64 118 64L 22 64C 22 64 10 64 10 52L 10 22C 10 22 10 10 22 10"></path></g></g></g><g id="g-root-2_13zv46l47idqh-stroke" data-item-order="1000000000" data-item-id="2_13zv46l47idqh" data-item-class="Icon Stroke" data-item-index="none" data-renderer-id="0" transform="translate(15, 70)"><g id="2_13zv46l47idqh-stroke" fill="none" stroke-linecap="round" stroke-linejoin="round" stroke-miterlimit="4" stroke="#484848" stroke-width="2"><g><path d="M 25 11.875L 25 10.625M 18.7225 13.47375L 18.125 12.37625M 13.975 17.879999L 12.925 17.20125M 31.2775 13.47375L 31.875 12.37625M 36.025002 17.879999L 37.075001 17.20125M 25 38.125L 25 39.375M 18.7225 36.5275L 18.125 37.625M 13.975 32.12125L 12.925 32.798752M 31.2775 36.5275L 31.875 37.625M 36.025002 32.12125L 37.075001 32.798752M 16.25 25C 16.25 29.832493 20.167509 33.75 25.000002 33.75C 29.832493 33.75 33.75 29.832493 33.75 25.000002C 33.75 20.167509 29.832493 16.25 25.000002 16.25C 20.167509 16.25 16.25 20.167509 16.25 25.000002ZM 39.375 25C 39.375 25 33.125 33.75 25 33.75C 16.875 33.75 10.625 25 10.625 25C 10.625 25 16.875 16.25 25 16.25C 33.125 16.25 39.375 25 39.375 25ZM 20 25C 20 27.761423 22.238577 30 25 30C 27.761423 30 30 27.761423 30 25C 30 22.238577 27.761423 20 25 20C 22.238577 20 20 22.238577 20 25ZM 25 18.75L 25 21.25M 25 28.75L 25 31.25M 18.75 25L 21.25 25M 28.75 25L 31.25 25M 25 24.6875C 25.172588 24.6875 25.3125 24.827412 25.3125 25C 25.3125 25.172588 25.172588 25.3125 25 25.3125C 24.827412 25.3125 24.6875 25.172588 24.6875 25C 24.6875 24.827412 24.827412 24.6875 25 24.6875"></path></g></g></g><g id="g-root-tx_visualat_1q6ymst47ibcw-stroke" data-item-order="1000000000" data-item-id="tx_visualat_1q6ymst47ibcw" data-item-class="Label Stroke" data-item-index="none" data-renderer-id="0" transform="translate(51, 61)"></g><g id="g-root-focu_18fomb147l5a8-stroke" data-item-order="1000000000" data-item-id="focu_18fomb147l5a8" data-item-class="Icon Stroke" data-item-index="none" data-renderer-id="0" transform="translate(227, 70)"><g id="focu_18fomb147l5a8-stroke" fill="none" stroke-linecap="round" stroke-linejoin="round" stroke-miterlimit="4" stroke="#3bc482" stroke-width="2"><g><path d="M 18.035713 20.714285C 18.035715 24.560555 21.15373 27.678572 25 27.678572C 28.84627 27.678572 31.964285 24.560555 31.964285 20.714285C 31.964285 16.868017 28.84627 13.75 25 13.75C 21.15373 13.75 18.035715 16.868017 18.035715 20.714285M 25 16.428572L 25 11.071428M 20.714285 20.714285L 15.357142 20.714285M 25 25L 25 30.357141M 29.285713 20.714285L 34.642857 20.714285M 17.864286 31.42857C 15.229186 33.188301 13.336715 35.859127 12.55 38.92857M 32.135712 31.42857C 34.766544 33.183083 36.658524 35.845585 37.450001 38.907143"></path></g></g></g><g id="g-root-tx_spatiala_1hap5gt47l6vj-stroke" data-item-order="1000000000" data-item-id="tx_spatiala_1hap5gt47l6vj" data-item-class="Label Stroke" data-item-index="none" data-renderer-id="0" transform="translate(263, 61)"></g><g id="g-root-down_1hdtiwd47nytr-stroke" data-item-order="1000000000" data-item-id="down_1hdtiwd47nytr" data-item-class="Icon Stroke" data-item-index="none" data-renderer-id="0" transform="translate(439, 24)"><g id="down_1hdtiwd47nytr-stroke" fill="none" stroke-linecap="round" stroke-linejoin="round" stroke-miterlimit="4" stroke="#17b0e3" stroke-width="2"><g><path d="M 22.03125 35.208328C 22.03125 36.15757 22.80076 36.927078 23.75 36.927078C 24.699238 36.927078 25.468748 36.15757 25.468748 35.208328C 25.468748 34.25909 24.699238 33.489578 23.75 33.489578C 22.80076 33.489578 22.03125 34.25909 22.03125 35.208328ZM 27.760416 30.624996C 27.760416 31.574238 28.529926 32.343746 29.479166 32.343746C 30.428406 32.343746 31.197916 31.574238 31.197916 30.624996C 31.197916 29.675758 30.428406 28.906246 29.479166 28.906246C 28.529926 28.906246 27.760416 29.675758 27.760416 30.624996ZM 32.34375 26.041664C 32.34375 26.990904 33.113258 27.760414 34.0625 27.760414C 35.011738 27.760414 35.78125 26.990904 35.78125 26.041664C 35.78125 25.092426 35.011738 24.322914 34.0625 24.322914C 33.113258 24.322914 32.34375 25.092426 32.34375 26.041664ZM 16.302082 30.624996C 16.302082 31.574238 17.071594 32.343746 18.020832 32.343746C 18.970072 32.343746 19.739582 31.574238 19.739582 30.624996C 19.739582 29.675758 18.970072 28.906246 18.020832 28.906246C 17.071594 28.906246 16.302082 29.675758 16.302082 30.624996ZM 11.71875 26.041664C 11.71875 26.990904 12.48826 27.760414 13.4375 27.760414C 14.38674 27.760414 15.15625 26.990904 15.15625 26.041664C 15.15625 25.092426 14.38674 24.322914 13.4375 24.322914C 12.48826 24.322914 11.71875 25.092426 11.71875 26.041664ZM 22.03125 12.291666C 22.03125 13.240906 22.80076 14.010416 23.75 14.010416C 24.699238 14.010416 25.468748 13.240906 25.468748 12.291666C 25.468748 11.342427 24.699238 10.572917 23.75 10.572917C 22.80076 10.572917 22.03125 11.342427 22.03125 12.291666ZM 22.03125 18.020832C 22.03125 18.970072 22.80076 19.739582 23.75 19.739582C 24.699238 19.739582 25.468748 18.970072 25.468748 18.020832C 25.468748 17.071592 24.699238 16.302082 23.75 16.302082C 22.80076 16.302082 22.03125 17.071592 22.03125 18.020832ZM 22.03125 23.749998C 22.03125 24.699238 22.80076 25.468748 23.75 25.468748C 24.699238 25.468748 25.468748 24.699238 25.468748 23.749998C 25.468748 22.800758 24.699238 22.031248 23.75 22.031248C 22.80076 22.031248 22.03125 22.800758 22.03125 23.749998ZM 22.03125 29.479164C 22.03125 30.428404 22.80076 31.197912 23.75 31.197912C 24.699238 31.197912 25.468748 30.428404 25.468748 29.479164C 25.468748 28.529924 24.699238 27.760414 23.75 27.760414C 22.80076 27.760414 22.03125 28.529924 22.03125 29.479164Z"></path></g></g></g><g id="g-root-tx_n2pc_1q6ypyl478idh-stroke" data-item-order="1000000000" data-item-id="tx_n2pc_1q6ypyl478idh" data-item-class="Label Stroke" data-item-index="none" data-renderer-id="0" transform="translate(687, 119)"></g><g id="g-root-tx_covertat_dg2k19475p1d-stroke" data-item-order="1000000000" data-item-id="tx_covertat_dg2k19475p1d" data-item-class="Label Stroke" data-item-index="none" data-renderer-id="0" transform="translate(475, 107)"></g><g id="g-root-tx_overtatt_1q9gj5947ny12-stroke" data-item-order="1000000000" data-item-id="tx_overtatt_1q9gj5947ny12" data-item-class="Label Stroke" data-item-index="none" data-renderer-id="0" transform="translate(475, 15)"></g><g id="g-root-neur_1hbbppp478j66-stroke" data-item-order="1000000000" data-item-id="neur_1hbbppp478j66" data-item-class="Icon Stroke" data-item-index="none" data-renderer-id="0" transform="translate(651, 116)"><g id="neur_1hbbppp478j66-stroke" fill="none" stroke-linecap="round" stroke-linejoin="round" stroke-miterlimit="4" stroke="#da5da8" stroke-width="2"><g><path d="M 10 10M 31.013752 31.137501L 26.838749 33.385002M 33.125 21.768749L 33.125 28.2325M 26.838749 16.616251L 31.01 18.86125M 23.125 16.25C 23.125 17.285534 23.964466 18.125 25 18.125C 26.035534 18.125 26.875 17.285534 26.875 16.25C 26.875 15.214466 26.035534 14.375 25 14.375C 23.964466 14.375 23.125 15.214466 23.125 16.25M 30.625 30C 30.625 31.035536 31.464466 31.875 32.5 31.875C 33.535534 31.875 34.375 31.035536 34.375 30C 34.375 28.964466 33.535534 28.125 32.5 28.125C 31.464466 28.125 30.625 28.964466 30.625 30M 30.625 20C 30.625 21.035534 31.464466 21.875 32.5 21.875C 33.535534 21.875 34.375 21.035534 34.375 20C 34.375 18.964466 33.535534 18.125 32.5 18.125C 31.464466 18.125 30.625 18.964466 30.625 20M 10 10M 18.98625 31.137501L 23.161251 33.385002M 16.875 21.768749L 16.875 28.22875M 15.625 30C 15.625 31.035536 16.464466 31.875 17.5 31.875C 18.535534 31.875 19.375 31.035536 19.375 30C 19.375 28.964466 18.535534 28.125 17.5 28.125C 16.464466 28.125 15.625 28.964466 15.625 30M 15.625 20C 15.625 21.035534 16.464466 21.875 17.5 21.875C 18.535534 21.875 19.375 21.035534 19.375 20C 19.375 18.964466 18.535534 18.125 17.5 18.125C 16.464466 18.125 15.625 18.964466 15.625 20M 23.125 33.75C 23.125 34.785534 23.964466 35.625 25 35.625C 26.035534 35.625 26.875 34.785534 26.875 33.75C 26.875 32.714466 26.035534 31.875 25 31.875C 23.964466 31.875 23.125 32.714466 23.125 33.75M 23.51 17.38875L 19.338751 19.635M 25.625 10.625L 25.625 14.4825M 24.375 35.514999L 24.375 39.375M 11.48875 17.38875L 15.66125 19.635M 10.625 18.018749C 11.37449 17.753765 11.875417 17.044954 11.875 16.25C 11.875417 15.455047 11.37449 14.746235 10.625 14.48125M 38.510002 17.38875L 34.338753 19.635M 39.375 18.018749C 38.624413 17.754707 38.122211 17.045679 38.122211 16.25C 38.122211 15.454322 38.624413 14.745294 39.375 14.48125M 11.48875 32.852501L 15.7175 30.574999M 10.625 32.2225C 11.374057 32.487331 11.874887 33.195503 11.875 33.990002C 11.875947 34.785416 11.374923 35.494865 10.625 35.759998M 38.51125 32.852501L 34.282501 30.574999M 39.375 32.2225C 38.624413 32.486542 38.122211 33.195572 38.122211 33.991249C 38.122211 34.786926 38.624413 35.495956 39.375 35.759998M 15.625 20C 15.625 21.035534 16.464466 21.875 17.5 21.875C 18.535534 21.875 19.375 21.035534 19.375 20C 19.375 18.964466 18.535534 18.125 17.5 18.125C 16.464466 18.125 15.625 18.964466 15.625 20"></path></g></g></g><g id="g-root-deni_4kfjsd475pu2-stroke" data-item-order="1000000000" data-item-id="deni_4kfjsd475pu2" data-item-class="Icon Stroke" data-item-index="none" data-renderer-id="0" transform="translate(439, 116)"><g id="deni_4kfjsd475pu2-stroke" fill="none" stroke-linecap="round" stroke-linejoin="round" stroke-miterlimit="4" stroke="#e15e5a" stroke-width="2"><g><path d="M 39.375 31.875C 39.375 36.017136 36.017136 39.375 31.875 39.375C 27.732866 39.375 24.375002 36.017136 24.375002 31.875C 24.375002 27.732864 27.732864 24.375 31.875 24.375C 36.017136 24.375 39.375 27.732864 39.375 31.875ZM 34.525002 29.225L 29.225 34.525002M 34.525002 34.525002L 29.225 29.225M 20 18.75C 20 21.511423 22.238577 23.75 25 23.75C 27.761423 23.75 30 21.511423 30 18.75C 30 15.988577 27.761423 13.75 25 13.75C 22.238577 13.75 20 15.988577 20 18.75M 25 16.875C 26.035534 16.875 26.875 17.714466 26.875 18.75C 26.875 19.785534 26.035534 20.625 25 20.625C 23.964466 20.625 23.125 19.785534 23.125 18.75M 35.587498 22.5875C 36.897091 21.553551 38.114185 20.407558 39.225002 19.1625C 39.421879 18.922739 39.421879 18.577261 39.224998 18.3375C 37.762497 16.6875 31.949999 10.625 25 10.625C 18.049999 10.625 12.2375 16.6875 10.775 18.3375C 10.578117 18.577261 10.578117 18.922739 10.775 19.162498C 12.1125 20.674999 17.112499 25.887501 23.275 26.75"></path></g></g></g><g id="g-root-cu_1cxdmul478iyw-stroke" data-item-order="1000000002" data-item-id="cu_1cxdmul478iyw" data-item-class="Curve Stroke" data-item-index="none" data-renderer-id="0" transform="translate(159, 85)"><g id="cu_1cxdmul478iyw-stroke" fill="none" stroke-linecap="round" stroke-linejoin="round" stroke-miterlimit="4" stroke="#484848" stroke-width="2"><g><path d="M 10 10L 38 10L 64 10"></path><path d="M 58 16.5L 64.5 10L 58 3.5" stroke-dasharray="none"></path></g></g></g><g id="g-root-cu_1q8u57x478hdv-stroke" data-item-order="1000000002" data-item-id="cu_1q8u57x478hdv" data-item-class="Curve Stroke" data-item-index="none" data-renderer-id="0" transform="translate(371, 85)"><g id="cu_1q8u57x478hdv-stroke" fill="none" stroke-linecap="round" stroke-linejoin="round" stroke-miterlimit="4" stroke="#484848" stroke-width="2"><g><path d="M 10 10L 24 10L 38 10L 38 33L 38 56L 52 56L 64 56"></path><path d="M 58 62.5L 64.5 56L 58 49.5" stroke-dasharray="none"></path></g></g></g><g id="g-root-cu_1hd74z1478i6m-stroke" data-item-order="1000000002" data-item-id="cu_1hd74z1478i6m" data-item-class="Curve Stroke" data-item-index="none" data-renderer-id="0" transform="translate(371, 39)"><g id="cu_1hd74z1478i6m-stroke" fill="none" stroke-linecap="round" stroke-linejoin="round" stroke-miterlimit="4" stroke="#484848" stroke-width="2"><g><path d="M 10 56L 24 56L 38 56L 38 33L 38 10L 52 10L 64 10"></path><path d="M 58 16.5L 64.5 10L 58 3.5" stroke-dasharray="none"></path></g></g></g><g id="g-root-cu_1uo1699478jrc-stroke" data-item-order="1000000002" data-item-id="cu_1uo1699478jrc" data-item-class="Curve Stroke" data-item-index="none" data-renderer-id="0" transform="translate(583, 131)"><g id="cu_1uo1699478jrc-stroke" fill="none" stroke-linecap="round" stroke-linejoin="round" stroke-miterlimit="4" stroke="#484848" stroke-width="2"><g><path d="M 10 10L 38 10L 64 10"></path><path d="M 58 16.5L 64.5 10L 58 3.5" stroke-dasharray="none"></path></g></g></g></g></g></svg>